<?xml version="1.0" standalone="no"?>
<!DOCTYPE svg PUBLIC "-//W3C//DTD SVG 20010904//EN"
 "http://www.w3.org/TR/2001/REC-SVG-20010904/DTD/svg10.dtd">
<svg version="1.0" xmlns="http://www.w3.org/2000/svg"
 width="640.000000pt" height="640.000000pt" viewBox="0 0 640.000000 640.000000"
 preserveAspectRatio="xMidYMid meet">
<metadata>
Created by potrace 1.11, written by Peter Selinger 2001-2013
</metadata>
<g transform="translate(0.000000,640.000000) scale(0.100000,-0.100000)"
fill="#000000" stroke="none">
<path d="M1057 5478 l-256 -443 70 -3 69 -3 0 -629 0 -630 779 0 779 0 27 -82
c36 -109 120 -283 185 -382 28 -43 50 -79 48 -80 -2 -1 -36 -26 -76 -55 -90
-64 -98 -67 -111 -44 -36 61 -24 65 -218 -75 -98 -71 -339 -245 -536 -386
l-358 -258 37 -51 c20 -29 57 -80 82 -114 l46 -63 26 18 c15 9 257 183 538
386 l511 369 -22 29 c-21 28 -21 28 -1 42 10 8 51 37 89 64 l71 50 48 -54 c90
-102 266 -238 419 -323 145 -80 377 -156 552 -181 94 -13 355 -13 452 1 693
96 1245 623 1385 1321 32 162 32 444 0 606 -137 683 -660 1196 -1339 1312
-157 27 -389 27 -546 0 -646 -110 -1162 -591 -1320 -1230 l-13 -55 -387 -3
-387 -2 0 250 0 250 66 0 c59 0 65 2 59 17 -12 34 -498 873 -505 873 -3 0
-122 -199 -263 -442z m3353 249 c298 -70 535 -197 743 -397 462 -443 608
-1100 376 -1695 -161 -415 -528 -764 -950 -906 -185 -62 -263 -73 -499 -73
-238 0 -321 13 -504 75 -382 131 -725 435 -897 797 -241 504 -200 1081 110
1544 226 338 583 578 980 657 140 29 149 29 351 26 155 -3 202 -7 290 -28z"/>
<path d="M3186 5255 c-229 -196 -400 -503 -451 -814 -21 -123 -16 -382 10
-494 50 -222 161 -444 294 -589 l53 -58 844 0 844 0 0 1010 0 1010 -758 0
-759 0 -77 -65z"/>
<path d="M2800 1295 l0 -655 40 0 40 0 0 121 0 120 97 112 c53 62 99 111 102
111 3 -1 69 -104 147 -230 l141 -229 43 -3 c32 -2 41 0 38 10 -3 7 -76 125
-162 262 -86 137 -156 252 -156 256 0 6 192 245 268 333 14 16 12 17 -31 17
l-46 0 -218 -267 -218 -268 -3 483 -2 482 -40 0 -40 0 0 -655z"/>
<path d="M5370 1295 l0 -655 40 0 40 0 0 119 0 120 100 116 100 116 29 -48
c17 -26 82 -131 145 -233 l114 -185 46 -3 46 -3 -160 254 c-88 140 -162 260
-165 268 -3 8 40 69 106 149 61 74 125 152 141 173 l30 37 -45 0 -45 0 -211
-260 c-117 -142 -216 -262 -221 -265 -6 -4 -10 168 -10 474 l0 481 -40 0 -40
0 0 -655z"/>
<path d="M4525 1845 c-44 -44 -21 -105 40 -105 41 0 65 22 65 58 0 33 -8 45
-37 61 -31 16 -41 14 -68 -14z"/>
<path d="M4816 1849 c-50 -39 -24 -109 41 -109 35 0 63 27 63 61 0 30 -9 43
-37 58 -30 15 -36 14 -67 -10z"/>
<path d="M430 1240 l0 -600 40 0 40 0 0 205 0 204 122 141 c67 77 125 140 128
140 3 0 94 -154 201 -342 l196 -343 47 -3 c25 -2 46 -1 46 2 0 4 -97 175 -216
381 l-216 375 188 217 188 218 -47 3 c-42 3 -49 0 -80 -35 -19 -21 -148 -168
-286 -328 -139 -159 -257 -291 -262 -293 -5 -2 -9 131 -9 327 l0 331 -40 0
-40 0 0 -600z"/>
<path d="M2477 1526 c-53 -20 -122 -83 -154 -141 -15 -28 -17 -28 -24 -10 -4
11 -8 48 -8 83 l-1 62 -35 0 -35 0 0 -440 0 -440 40 0 40 0 0 300 0 301 25 50
c59 116 140 173 237 167 58 -3 59 -3 67 27 5 17 5 34 0 39 -14 16 -112 17
-152 2z"/>
<path d="M3767 1526 c-111 -31 -178 -114 -178 -219 0 -30 6 -68 15 -84 24 -47
86 -97 156 -125 36 -15 99 -41 141 -58 172 -69 224 -178 137 -284 -41 -50 -82
-66 -170 -66 -95 0 -139 13 -217 63 l-64 41 -18 -23 c-25 -30 -24 -36 9 -59
194 -137 458 -119 550 37 22 38 27 58 27 117 0 123 -54 177 -254 255 -193 74
-231 107 -231 195 0 45 5 59 30 88 67 76 195 88 310 28 59 -31 63 -32 81 -16
32 29 22 44 -55 80 -87 42 -189 53 -269 30z"/>
<path d="M4627 1530 c-61 -16 -136 -58 -182 -104 -130 -131 -164 -393 -76
-583 39 -83 97 -143 178 -184 62 -32 74 -34 162 -34 85 0 103 3 158 29 69 31
148 107 181 172 53 104 71 269 43 389 -33 136 -127 253 -239 295 -64 25 -168
34 -225 20z m208 -93 c120 -61 185 -187 185 -356 0 -181 -69 -310 -198 -369
-73 -33 -177 -29 -245 11 -184 108 -234 423 -97 622 80 116 231 156 355 92z"/>
<path d="M1283 1506 c3 -8 85 -211 181 -450 l175 -435 -23 -68 c-32 -93 -50
-127 -98 -179 -46 -50 -98 -69 -159 -59 -36 6 -40 5 -49 -21 -14 -37 -3 -46
65 -52 102 -8 201 62 264 188 16 30 107 280 204 555 97 276 179 509 183 518 5
14 0 17 -34 17 -47 0 -28 43 -197 -458 -62 -183 -115 -335 -118 -338 -6 -7
-29 49 -186 461 l-126 330 -44 3 c-36 3 -43 1 -38 -12z"/>
</g>
</svg>
