<?xml version="1.0" encoding="UTF-8" standalone="no"?>
<!-- Created with Inkscape (http://www.inkscape.org/) -->

<svg
   xmlns:dc="http://purl.org/dc/elements/1.1/"
   xmlns:cc="http://creativecommons.org/ns#"
   xmlns:rdf="http://www.w3.org/1999/02/22-rdf-syntax-ns#"
   xmlns:svg="http://www.w3.org/2000/svg"
   xmlns="http://www.w3.org/2000/svg"
   xmlns:sodipodi="http://sodipodi.sourceforge.net/DTD/sodipodi-0.dtd"
   xmlns:inkscape="http://www.inkscape.org/namespaces/inkscape"
   width="76.364616"
   height="76.364616"
   id="svg4120"
   version="1.1"
   inkscape:version="0.48.3.1 r9886"
   sodipodi:docname="Kyrksok-logo-square-path.svg"
   inkscape:export-filename="/home/ainali/Downloads/Kyrksok-logo-square.png"
   inkscape:export-xdpi="754.28003"
   inkscape:export-ydpi="754.28003">
  <defs
     id="defs4122" />
  <sodipodi:namedview
     id="base"
     pagecolor="#ffffff"
     bordercolor="#666666"
     borderopacity="1.0"
     inkscape:pageopacity="0.0"
     inkscape:pageshadow="2"
     inkscape:zoom="14.211756"
     inkscape:cx="57.85021"
     inkscape:cy="33.742972"
     inkscape:document-units="px"
     inkscape:current-layer="layer1"
     showgrid="false"
     fit-margin-top="0"
     fit-margin-left="0"
     fit-margin-right="0"
     fit-margin-bottom="0"
     inkscape:window-width="2560"
     inkscape:window-height="1645"
     inkscape:window-x="-2"
     inkscape:window-y="-3"
     inkscape:window-maximized="1"
     showguides="true"
     inkscape:guide-bbox="true" />
  <metadata
     id="metadata4125">
    <rdf:RDF>
      <cc:Work
         rdf:about="">
        <dc:format>image/svg+xml</dc:format>
        <dc:type
           rdf:resource="http://purl.org/dc/dcmitype/StillImage" />
        <dc:title />
      </cc:Work>
    </rdf:RDF>
  </metadata>
  <g
     inkscape:label="Layer 1"
     inkscape:groupmode="layer"
     id="layer1"
     transform="translate(-381.81769,-559.89417)">
    <rect
       style="fill:#ffffff;fill-opacity:1;stroke:none"
       id="rect4025"
       width="76.364616"
       height="76.364616"
       x="381.81769"
       y="559.89417" />
    <path
       inkscape:connector-curvature="0"
       style="fill:#4b7740;fill-opacity:1;stroke:none"
       d="m 420.85242,572.72088 c -0.86126,0.6589 -1.66069,1.35526 -2.36582,2.14204 -0.7251,0.80903 -1.36879,1.67438 -1.91824,2.58962 -0.54946,0.91524 -1.01163,1.88533 -1.37474,2.87736 -0.36312,0.99203 -0.63319,2.02978 -0.79927,3.06918 -0.16607,1.0394 -0.20152,2.07578 -0.15985,3.13313 0.0416,1.05734 0.18748,2.11921 0.44759,3.16509 0.26011,1.04587 0.62971,2.09616 1.11897,3.10115 0.48927,1.00503 1.06364,1.93158 1.72642,2.78145 0.37607,0.48223 0.82242,0.88097 1.24685,1.3108 l 1.59853,0 18.44707,0 0,-24.16982 -15.88941,0 -2.0781,0 z"
       id="path4017" />
    <path
       inkscape:connector-curvature="0"
       style="fill:#4b7740;fill-opacity:1;stroke:none"
       d="m 397.57156,565.47266 -3.125,5.375 -3.09375,5.375 1.65625,0 0,15.09375 0.15625,0 8.9375,0 9.90625,0 c -0.0252,-0.0948 -0.0701,-0.18629 -0.0937,-0.28125 -0.30258,-1.21662 -0.48278,-2.45754 -0.53125,-3.6875 -0.0485,-1.22996 0.0256,-2.44717 0.21875,-3.65625 0.0815,-0.51005 0.28333,-0.998 0.40625,-1.5 l -9.90625,0 0,-5.96875 1.65625,0 -3.09375,-5.375 -3.09375,-5.375 z"
       id="path4019" />
    <path
       transform="matrix(0.98407676,0,0,0.98407676,382.90462,560.69212)"
       style="fill:none;stroke:#4b7740;stroke-width:1.01618089;stroke-miterlimit:4;stroke-opacity:1;stroke-dasharray:none"
       d="m 67.760801,25.80788 c 0,10.706238 -8.67912,19.385359 -19.385358,19.385359 -10.706239,0 -19.385359,-8.679121 -19.385359,-19.385359 0,-10.706238 8.67912,-19.3853584 19.385359,-19.3853584 10.706238,0 19.385358,8.6791204 19.385358,19.3853584 z"
       id="path3002" />
    <path
       style="fill:#4b7740;fill-opacity:1;stroke:#4b7740;stroke-width:0.58399999;stroke-linecap:round;stroke-linejoin:miter;stroke-miterlimit:4;stroke-opacity:1;stroke-dasharray:none"
       d="m 415.143,597.80767 -2.51745,1.79717 -0.6583,-0.90638 -12.34493,8.89819 1.64734,2.2815 12.34493,-8.8982 -0.51165,-0.70151 2.51745,-1.79717 -0.47739,-0.6736 z"
       id="rect3772"
       inkscape:connector-curvature="0" />
    <g
       style="font-size:21.84631538px;font-style:normal;font-weight:normal;line-height:125%;letter-spacing:0px;word-spacing:0px;fill:#4b7740;fill-opacity:1;stroke:none;font-family:Sans"
       id="text3003">
      <path
         d="m 386.96425,614.23585 1.00493,0 0,7.99575 0.0437,0 6.96897,-7.99575 1.20155,0 -4.58772,5.3305 5.22126,9.06622 -1.15785,0 -4.7625,-8.3016 -2.9274,3.34248 0,4.95912 -1.00493,0 0,-14.39672"
         style="font-variant:normal;font-weight:300;font-stretch:normal;font-family:Source Sans Pro;-inkscape-font-specification:Source Sans Pro Light"
         id="path3008" />
      <path
         d="m 397.53513,632.34644 c 0.11651,0.0437 0.24759,0.0801 0.39324,0.10923 0.14564,0.0437 0.29856,0.0655 0.45877,0.0655 0.65539,0 1.20154,-0.26216 1.63847,-0.78646 0.43692,-0.52432 0.78647,-1.18699 1.04863,-1.98802 l 0.284,-0.91754 -4.30373,-10.68285 1.04863,0 2.53417,6.59758 c 0.1602,0.43693 0.33497,0.91755 0.52431,1.44186 0.20389,0.52431 0.40779,1.0195 0.6117,1.48555 l 0.0874,0 c 0.1602,-0.46605 0.32041,-0.96124 0.48062,-1.48555 0.17477,-0.52431 0.33497,-1.00493 0.48062,-1.44186 l 2.25017,-6.59758 0.98309,0 -4.1508,11.79701 c -0.14565,0.43692 -0.3277,0.85928 -0.54616,1.26708 -0.20391,0.42236 -0.4515,0.79375 -0.74278,1.11417 -0.27672,0.33497 -0.60442,0.59712 -0.98308,0.78646 -0.36411,0.2039 -0.77919,0.30585 -1.24524,0.30585 -0.39324,0 -0.75006,-0.0728 -1.07047,-0.21846 l 0.21846,-0.85201 0,0"
         style="font-variant:normal;font-weight:300;font-stretch:normal;font-family:Source Sans Pro;-inkscape-font-specification:Source Sans Pro Light"
         id="path3010" />
      <path
         d="m 408.31731,618.14634 0.83016,0 0.0874,1.94432 0.0655,0 c 0.34954,-0.65538 0.7719,-1.18697 1.26708,-1.59478 0.50975,-0.40779 1.07775,-0.61169 1.70402,-0.6117 0.20389,10e-6 0.38594,0.0146 0.54616,0.0437 0.16019,0.0291 0.32768,0.0874 0.50246,0.17477 l -0.21846,0.87386 c -0.17478,-0.0728 -0.3277,-0.11651 -0.45878,-0.13108 -0.13108,-0.0291 -0.29857,-0.0437 -0.50246,-0.0437 -0.46606,10e-6 -0.96124,0.20391 -1.48555,0.61169 -0.50975,0.39325 -0.96852,1.08505 -1.37632,2.0754 l 0,7.14375 -0.96124,0 0,-10.48623"
         style="font-variant:normal;font-weight:300;font-stretch:normal;font-family:Source Sans Pro;-inkscape-font-specification:Source Sans Pro Light"
         id="path3012" />
      <path
         d="m 415.22962,612.92507 0.96124,0 0,11.57854 0.0437,0 5.17758,-6.35727 1.11416,0 -3.40802,4.1508 3.97603,6.33543 -1.07047,0 -3.47357,-5.6145 -2.3594,2.75263 0,2.86187 -0.96124,0 0,-15.7075"
         style="font-variant:normal;font-weight:300;font-stretch:normal;font-family:Source Sans Pro;-inkscape-font-specification:Source Sans Pro Light"
         id="path3014" />
      <path
         d="m 424.64197,626.73194 c 0.45149,0.37867 0.93211,0.69908 1.44186,0.96124 0.50974,0.24759 1.14329,0.37138 1.90063,0.37138 0.83015,0 1.44913,-0.20389 1.85693,-0.61169 0.42236,-0.42236 0.63354,-0.91026 0.63355,-1.46371 -1e-5,-0.32041 -0.0801,-0.60441 -0.24031,-0.852 -0.14565,-0.24759 -0.34227,-0.45877 -0.58985,-0.63355 -0.2476,-0.17476 -0.52432,-0.32769 -0.83016,-0.45877 -0.29129,-0.13107 -0.58986,-0.25487 -0.8957,-0.37139 -0.39324,-0.14563 -0.79375,-0.29856 -1.20155,-0.45877 -0.39323,-0.1602 -0.75006,-0.34953 -1.07047,-0.568 -0.32041,-0.23302 -0.58257,-0.50246 -0.78646,-0.80832 -0.18934,-0.3204 -0.28401,-0.70635 -0.28401,-1.15785 0,-0.37866 0.0728,-0.73548 0.21847,-1.07047 0.14564,-0.34953 0.3641,-0.6481 0.65539,-0.8957 0.29128,-0.26214 0.64082,-0.46604 1.04862,-0.6117 0.42236,-0.14563 0.91026,-0.21845 1.4637,-0.21846 0.55344,10e-6 1.09231,0.10196 1.61663,0.30585 0.53887,0.20391 0.99764,0.46606 1.37632,0.78647 l -0.52431,0.67723 c -0.34955,-0.26214 -0.72094,-0.48061 -1.11417,-0.65539 -0.39324,-0.18932 -0.85929,-0.28399 -1.39816,-0.284 -0.4078,10e-6 -0.75734,0.0583 -1.04862,0.17477 -0.29129,0.10196 -0.53888,0.24032 -0.74278,0.41508 -0.18934,0.17478 -0.33498,0.37868 -0.43693,0.6117 -0.0874,0.23303 -0.13108,0.46606 -0.13107,0.69908 -1e-5,0.30586 0.0655,0.56801 0.19661,0.78647 0.14564,0.2039 0.33498,0.38596 0.56801,0.54616 0.23302,0.16021 0.49518,0.30585 0.78647,0.43692 0.30584,0.11652 0.61169,0.23304 0.91754,0.34954 0.40779,0.16022 0.81559,0.32042 1.22339,0.48062 0.4078,0.16021 0.7719,0.35683 1.09232,0.58985 0.33497,0.23303 0.60441,0.52432 0.80831,0.87386 0.20389,0.33498 0.30584,0.75734 0.30585,1.26708 -10e-6,0.39324 -0.0801,0.77191 -0.24031,1.13601 -0.14565,0.34954 -0.37139,0.66267 -0.67723,0.93939 -0.30586,0.26216 -0.67725,0.47334 -1.11417,0.63354 -0.43693,0.16021 -0.93939,0.24031 -1.50739,0.24031 -0.78647,0 -1.5074,-0.13836 -2.16279,-0.41508 -0.65539,-0.29128 -1.21611,-0.63354 -1.68216,-1.02677 l 0.568,-0.72093"
         style="font-variant:normal;font-weight:300;font-stretch:normal;font-family:Source Sans Pro;-inkscape-font-specification:Source Sans Pro Light"
         id="path3016" />
      <path
         d="m 433.34329,623.4113 c 0,-0.87385 0.1238,-1.65303 0.37139,-2.33756 0.26215,-0.69907 0.60441,-1.28164 1.02678,-1.7477 0.43692,-0.46605 0.93938,-0.82287 1.50739,-1.07047 0.568,-0.24758 1.16513,-0.37138 1.7914,-0.37139 0.62625,10e-6 1.22339,0.12381 1.7914,0.37139 0.58256,0.2476 1.08502,0.60442 1.50739,1.07047 0.43692,0.46606 0.77918,1.04863 1.02678,1.7477 0.26215,0.68453 0.39322,1.46371 0.39323,2.33756 -10e-6,0.87386 -0.13108,1.65304 -0.39323,2.33755 -0.2476,0.66996 -0.58986,1.23796 -1.02678,1.70402 -0.42237,0.46605 -0.92483,0.82288 -1.50739,1.07047 -0.56801,0.24759 -1.16515,0.37138 -1.7914,0.37138 -0.62627,0 -1.2234,-0.12379 -1.7914,-0.37138 -0.56801,-0.24759 -1.07047,-0.60442 -1.50739,-1.07047 -0.42237,-0.46606 -0.76463,-1.03406 -1.02678,-1.70402 -0.24759,-0.68451 -0.37139,-1.46369 -0.37139,-2.33755 m 1.00493,0 c 0,0.68452 0.0947,1.31078 0.284,1.87878 0.18934,0.56801 0.44421,1.05591 0.76463,1.46371 0.33497,0.40779 0.7282,0.72821 1.1797,0.96123 0.45148,0.21847 0.93938,0.3277 1.4637,0.3277 0.5243,0 1.0122,-0.10923 1.4637,-0.3277 0.46605,-0.23302 0.85928,-0.55344 1.1797,-0.96123 0.33497,-0.4078 0.59713,-0.8957 0.78647,-1.46371 0.18933,-0.568 0.28399,-1.19426 0.284,-1.87878 -10e-6,-0.69908 -0.0947,-1.33262 -0.284,-1.90063 -0.18934,-0.568 -0.4515,-1.0559 -0.78647,-1.4637 -0.32042,-0.42236 -0.71365,-0.74277 -1.1797,-0.96124 -0.4515,-0.23302 -0.9394,-0.34953 -1.4637,-0.34954 -0.52432,1e-5 -1.01222,0.11652 -1.4637,0.34954 -0.4515,0.21847 -0.84473,0.53888 -1.1797,0.96124 -0.32042,0.4078 -0.57529,0.8957 -0.76463,1.4637 -0.18933,0.56801 -0.284,1.20155 -0.284,1.90063 m 1.96617,-7.84283 c -0.23303,10e-6 -0.42237,-0.0728 -0.568,-0.21846 -0.14565,-0.16019 -0.21847,-0.35681 -0.21847,-0.58985 0,-0.21845 0.0728,-0.4005 0.21847,-0.54616 0.14563,-0.16019 0.33497,-0.24029 0.568,-0.24031 0.23302,2e-5 0.42236,0.0801 0.568,0.24031 0.16021,0.14566 0.24031,0.32771 0.24031,0.54616 0,0.23304 -0.0801,0.42966 -0.24031,0.58985 -0.14564,0.14565 -0.33498,0.21847 -0.568,0.21846 m 3.45172,0 c -0.23304,10e-6 -0.42965,-0.0728 -0.58985,-0.21846 -0.14565,-0.16019 -0.21847,-0.35681 -0.21847,-0.58985 0,-0.21845 0.0728,-0.4005 0.21847,-0.54616 0.1602,-0.16019 0.35681,-0.24029 0.58985,-0.24031 0.23302,2e-5 0.42235,0.0801 0.568,0.24031 0.14564,0.14566 0.21846,0.32771 0.21847,0.54616 -10e-6,0.23304 -0.0728,0.42966 -0.21847,0.58985 -0.14565,0.14565 -0.33498,0.21847 -0.568,0.21846"
         style="font-variant:normal;font-weight:300;font-stretch:normal;font-family:Source Sans Pro;-inkscape-font-specification:Source Sans Pro Light"
         id="path3018" />
      <path
         d="m 445.90834,612.92507 0.96123,0 0,11.57854 0.0437,0 5.17757,-6.35727 1.11417,0 -3.40803,4.1508 3.97603,6.33543 -1.07047,0 -3.47356,-5.6145 -2.35941,2.75263 0,2.86187 -0.96123,0 0,-15.7075"
         style="font-variant:normal;font-weight:300;font-stretch:normal;font-family:Source Sans Pro;-inkscape-font-specification:Source Sans Pro Light"
         id="path3020" />
    </g>
  </g>
</svg>
