<svg id="Lager_1" data-name="Lager 1" xmlns="http://www.w3.org/2000/svg" xmlns:xlink="http://www.w3.org/1999/xlink" viewBox="0 0 380 167">
  <defs>
    <style>
      .cls-1, .cls-10, .cls-11, .cls-15, .cls-2, .cls-3, .cls-9 {
        fill: none;
      }

      .cls-2 {
        clip-rule: evenodd;
      }

      .cls-3 {
        fill-rule: evenodd;
      }

      .cls-4 {
        clip-path: url(#clip-path);
      }

      .cls-5 {
        clip-path: url(#clip-path-2);
      }

      .cls-6 {
        fill: #75ad66;
      }

      .cls-7 {
        clip-path: url(#clip-path-3);
      }

      .cls-8 {
        clip-path: url(#clip-path-4);
      }

      .cls-15, .cls-9 {
        stroke: #fff;
      }

      .cls-10, .cls-11, .cls-15, .cls-9 {
        stroke-miterlimit: 10;
      }

      .cls-9 {
        stroke-width: 8px;
      }

      .cls-10, .cls-11 {
        stroke: #3a4e48;
        stroke-linecap: round;
      }

      .cls-10 {
        stroke-width: 5px;
      }

      .cls-11 {
        stroke-width: 10px;
      }

      .cls-12 {
        font-size: 14px;
        fill: #fff;
        font-family: SourceSansPro-Bold, Source Sans Pro;
        font-weight: 700;
      }

      .cls-13 {
        clip-path: url(#clip-path-9);
      }

      .cls-14 {
        clip-path: url(#clip-path-10);
      }

      .cls-15 {
        stroke-width: 6px;
      }

      .cls-16 {
        clip-path: url(#clip-path-14);
      }

      .cls-17 {
        clip-path: url(#clip-path-15);
      }

      .cls-18 {
        clip-path: url(#clip-path-19);
      }

      .cls-19 {
        clip-path: url(#clip-path-20);
      }

      .cls-20 {
        clip-path: url(#clip-path-24);
      }

      .cls-21 {
        clip-path: url(#clip-path-25);
      }

      .cls-22 {
        clip-path: url(#clip-path-29);
      }

      .cls-23 {
        clip-path: url(#clip-path-30);
      }

      .cls-24 {
        clip-path: url(#clip-path-34);
      }

      .cls-25 {
        clip-path: url(#clip-path-35);
      }

      .cls-26 {
        clip-path: url(#clip-path-39);
      }

      .cls-27 {
        clip-path: url(#clip-path-40);
      }

      .cls-28 {
        clip-path: url(#clip-path-44);
      }

      .cls-29 {
        clip-path: url(#clip-path-45);
      }

      .cls-30 {
        clip-path: url(#clip-path-49);
      }

      .cls-31 {
        clip-path: url(#clip-path-50);
      }

      .cls-32 {
        clip-path: url(#clip-path-54);
      }

      .cls-33 {
        clip-path: url(#clip-path-55);
      }

      .cls-34 {
        clip-path: url(#clip-path-59);
      }

      .cls-35 {
        clip-path: url(#clip-path-60);
      }

      .cls-36 {
        clip-path: url(#clip-path-64);
      }

      .cls-37 {
        clip-path: url(#clip-path-65);
      }

      .cls-38 {
        clip-path: url(#clip-path-69);
      }

      .cls-39 {
        clip-path: url(#clip-path-70);
      }

      .cls-40 {
        clip-path: url(#clip-path-74);
      }

      .cls-41 {
        clip-path: url(#clip-path-75);
      }

      .cls-42 {
        clip-path: url(#clip-path-79);
      }

      .cls-43 {
        clip-path: url(#clip-path-80);
      }

      .cls-44 {
        clip-path: url(#clip-path-84);
      }

      .cls-45 {
        clip-path: url(#clip-path-85);
      }

      .cls-46 {
        clip-path: url(#clip-path-89);
      }

      .cls-47 {
        clip-path: url(#clip-path-90);
      }

      .cls-48 {
        clip-path: url(#clip-path-94);
      }

      .cls-49 {
        clip-path: url(#clip-path-95);
      }

      .cls-50 {
        clip-path: url(#clip-path-99);
      }

      .cls-51 {
        clip-path: url(#clip-path-100);
      }

      .cls-52 {
        clip-path: url(#clip-path-104);
      }

      .cls-53 {
        clip-path: url(#clip-path-105);
      }
    </style>
    <clipPath id="clip-path">
      <rect class="cls-1" x="-1" width="381" height="167"/>
    </clipPath>
    <clipPath id="clip-path-2">
      <rect class="cls-1" width="380" height="167"/>
    </clipPath>
    <clipPath id="clip-path-3">
      <path class="cls-2" d="M36,106.88v36.75a4,4,0,0,0,4,4H342a4,4,0,0,0,4-4V106.88a4,4,0,0,0-4-4H40A4,4,0,0,0,36,106.88Zm4,0s0,0,0,0H342v36.75s0,0,0,0H40Zm-24-24H366v84.73H16Z"/>
    </clipPath>
    <clipPath id="clip-path-4">
      <path class="cls-2" d="M38,106.88a2,2,0,0,1,2-2H342a2,2,0,0,1,2,2v36.75a2,2,0,0,1-2,2H40a2,2,0,0,1-2-2Z"/>
    </clipPath>
    <clipPath id="clip-path-9">
      <path class="cls-2" d="M22,40.25a7.67,7.67,0,1,1,7.5-7.66A7.58,7.58,0,0,1,22,40.25Zm0,3A10.67,10.67,0,1,0,11.5,32.59,10.58,10.58,0,0,0,22,43.25ZM-8.5,1.92h61V63.25h-61Z"/>
    </clipPath>
    <clipPath id="clip-path-10">
      <ellipse class="cls-1" cx="22" cy="32.59" rx="9" ry="9.16"/>
    </clipPath>
    <clipPath id="clip-path-14">
      <path class="cls-2" d="M55,78.95a7.67,7.67,0,1,1,7.5-7.66A7.58,7.58,0,0,1,55,78.95Zm0,3A10.67,10.67,0,1,0,44.5,71.28,10.58,10.58,0,0,0,55,81.95ZM24.5,40.62h61v61.33h-61Z"/>
    </clipPath>
    <clipPath id="clip-path-15">
      <ellipse class="cls-1" cx="55" cy="71.28" rx="9" ry="9.16"/>
    </clipPath>
    <clipPath id="clip-path-19">
      <path class="cls-2" d="M125,78.95a7.67,7.67,0,1,1,7.5-7.66A7.58,7.58,0,0,1,125,78.95Zm0,3a10.67,10.67,0,1,0-10.5-10.66A10.58,10.58,0,0,0,125,81.95ZM94.5,40.62h61v61.33h-61Z"/>
    </clipPath>
    <clipPath id="clip-path-20">
      <ellipse class="cls-1" cx="125" cy="71.28" rx="9" ry="9.16"/>
    </clipPath>
    <clipPath id="clip-path-24">
      <path class="cls-2" d="M125,40.25a7.67,7.67,0,1,1,7.5-7.66A7.58,7.58,0,0,1,125,40.25Zm0,3a10.67,10.67,0,1,0-10.5-10.66A10.58,10.58,0,0,0,125,43.25ZM94.5,1.92h61V63.25h-61Z"/>
    </clipPath>
    <clipPath id="clip-path-25">
      <ellipse class="cls-1" cx="125" cy="32.59" rx="9" ry="9.16"/>
    </clipPath>
    <clipPath id="clip-path-29">
      <path class="cls-2" d="M119,40.25a7.67,7.67,0,1,1,7.5-7.66A7.58,7.58,0,0,1,119,40.25Zm0,3a10.67,10.67,0,1,0-10.5-10.66A10.58,10.58,0,0,0,119,43.25ZM88.5,1.92h61V63.25h-61Z"/>
    </clipPath>
    <clipPath id="clip-path-30">
      <ellipse class="cls-1" cx="119" cy="32.59" rx="9" ry="9.16"/>
    </clipPath>
    <clipPath id="clip-path-34">
      <path class="cls-2" d="M260,40.25a7.67,7.67,0,1,1,7.5-7.66A7.58,7.58,0,0,1,260,40.25Zm0,3a10.67,10.67,0,1,0-10.5-10.66A10.58,10.58,0,0,0,260,43.25ZM229.5,1.92h61V63.25h-61Z"/>
    </clipPath>
    <clipPath id="clip-path-35">
      <ellipse class="cls-1" cx="260" cy="32.59" rx="9" ry="9.16"/>
    </clipPath>
    <clipPath id="clip-path-39">
      <path class="cls-2" d="M255,40.25a7.67,7.67,0,1,1,7.5-7.66A7.58,7.58,0,0,1,255,40.25Zm0,3a10.67,10.67,0,1,0-10.5-10.66A10.58,10.58,0,0,0,255,43.25ZM224.5,1.92h61V63.25h-61Z"/>
    </clipPath>
    <clipPath id="clip-path-40">
      <ellipse class="cls-1" cx="255" cy="32.59" rx="9" ry="9.16"/>
    </clipPath>
    <clipPath id="clip-path-44">
      <path class="cls-2" d="M294,40.25a7.67,7.67,0,1,1,7.5-7.66A7.58,7.58,0,0,1,294,40.25Zm0,3a10.67,10.67,0,1,0-10.5-10.66A10.58,10.58,0,0,0,294,43.25ZM263.5,1.92h61V63.25h-61Z"/>
    </clipPath>
    <clipPath id="clip-path-45">
      <ellipse class="cls-1" cx="294" cy="32.59" rx="9" ry="9.16"/>
    </clipPath>
    <clipPath id="clip-path-49">
      <path class="cls-2" d="M327,40.25a7.67,7.67,0,1,1,7.5-7.66A7.58,7.58,0,0,1,327,40.25Zm0,3a10.67,10.67,0,1,0-10.5-10.66A10.58,10.58,0,0,0,327,43.25ZM296.5,1.92h61V63.25h-61Z"/>
    </clipPath>
    <clipPath id="clip-path-50">
      <ellipse class="cls-1" cx="327" cy="32.59" rx="9" ry="9.16"/>
    </clipPath>
    <clipPath id="clip-path-54">
      <path class="cls-2" d="M321,40.25a7.67,7.67,0,1,1,7.5-7.66A7.58,7.58,0,0,1,321,40.25Zm0,3a10.67,10.67,0,1,0-10.5-10.66A10.58,10.58,0,0,0,321,43.25ZM290.5,1.92h61V63.25h-61Z"/>
    </clipPath>
    <clipPath id="clip-path-55">
      <ellipse class="cls-1" cx="321" cy="32.59" rx="9" ry="9.16"/>
    </clipPath>
    <clipPath id="clip-path-59">
      <path class="cls-2" d="M315,40.25a7.67,7.67,0,1,1,7.5-7.66A7.58,7.58,0,0,1,315,40.25Zm0,3a10.67,10.67,0,1,0-10.5-10.66A10.58,10.58,0,0,0,315,43.25ZM284.5,1.92h61V63.25h-61Z"/>
    </clipPath>
    <clipPath id="clip-path-60">
      <ellipse class="cls-1" cx="315" cy="32.59" rx="9" ry="9.16"/>
    </clipPath>
    <clipPath id="clip-path-64">
      <path class="cls-2" d="M362,40.25a7.67,7.67,0,1,1,7.5-7.66A7.58,7.58,0,0,1,362,40.25Zm0,3a10.67,10.67,0,1,0-10.5-10.66A10.58,10.58,0,0,0,362,43.25ZM331.5,1.92h61V63.25h-61Z"/>
    </clipPath>
    <clipPath id="clip-path-65">
      <ellipse class="cls-1" cx="362" cy="32.59" rx="9" ry="9.16"/>
    </clipPath>
    <clipPath id="clip-path-69">
      <path class="cls-2" d="M356,40.25a7.67,7.67,0,1,1,7.5-7.66A7.58,7.58,0,0,1,356,40.25Zm0,3a10.67,10.67,0,1,0-10.5-10.66A10.58,10.58,0,0,0,356,43.25ZM325.5,1.92h61V63.25h-61Z"/>
    </clipPath>
    <clipPath id="clip-path-70">
      <ellipse class="cls-1" cx="356" cy="32.59" rx="9" ry="9.16"/>
    </clipPath>
    <clipPath id="clip-path-74">
      <path class="cls-2" d="M362,78.95a7.67,7.67,0,1,1,7.5-7.66A7.58,7.58,0,0,1,362,78.95Zm0,3a10.67,10.67,0,1,0-10.5-10.66A10.58,10.58,0,0,0,362,81.95ZM331.5,40.62h61v61.33h-61Z"/>
    </clipPath>
    <clipPath id="clip-path-75">
      <ellipse class="cls-1" cx="362" cy="71.28" rx="9" ry="9.16"/>
    </clipPath>
    <clipPath id="clip-path-79">
      <path class="cls-2" d="M158,78.95a7.67,7.67,0,1,1,7.5-7.66A7.58,7.58,0,0,1,158,78.95Zm0,3a10.67,10.67,0,1,0-10.5-10.66A10.58,10.58,0,0,0,158,81.95ZM127.5,40.62h61v61.33h-61Z"/>
    </clipPath>
    <clipPath id="clip-path-80">
      <ellipse class="cls-1" cx="158" cy="71.28" rx="9" ry="9.16"/>
    </clipPath>
    <clipPath id="clip-path-84">
      <path class="cls-2" d="M294,78.95a7.67,7.67,0,1,1,7.5-7.66A7.58,7.58,0,0,1,294,78.95Zm0,3a10.67,10.67,0,1,0-10.5-10.66A10.58,10.58,0,0,0,294,81.95ZM263.5,40.62h61v61.33h-61Z"/>
    </clipPath>
    <clipPath id="clip-path-85">
      <ellipse class="cls-1" cx="294" cy="71.28" rx="9" ry="9.16"/>
    </clipPath>
    <clipPath id="clip-path-89">
      <path class="cls-2" d="M287,78.95a7.67,7.67,0,1,1,7.5-7.66A7.58,7.58,0,0,1,287,78.95Zm0,3a10.67,10.67,0,1,0-10.5-10.66A10.58,10.58,0,0,0,287,81.95ZM256.5,40.62h61v61.33h-61Z"/>
    </clipPath>
    <clipPath id="clip-path-90">
      <ellipse class="cls-1" cx="287" cy="71.28" rx="9" ry="9.16"/>
    </clipPath>
    <clipPath id="clip-path-94">
      <path class="cls-2" d="M281,78.95a7.67,7.67,0,1,1,7.5-7.66A7.58,7.58,0,0,1,281,78.95Zm0,3a10.67,10.67,0,1,0-10.5-10.66A10.58,10.58,0,0,0,281,81.95ZM250.5,40.62h61v61.33h-61Z"/>
    </clipPath>
    <clipPath id="clip-path-95">
      <ellipse class="cls-1" cx="281" cy="71.28" rx="9" ry="9.16"/>
    </clipPath>
    <clipPath id="clip-path-99">
      <path class="cls-2" d="M274,78.95a7.67,7.67,0,1,1,7.5-7.66A7.58,7.58,0,0,1,274,78.95Zm0,3a10.67,10.67,0,1,0-10.5-10.66A10.58,10.58,0,0,0,274,81.95ZM243.5,40.62h61v61.33h-61Z"/>
    </clipPath>
    <clipPath id="clip-path-100">
      <ellipse class="cls-1" cx="274" cy="71.28" rx="9" ry="9.16"/>
    </clipPath>
    <clipPath id="clip-path-104">
      <path class="cls-2" d="M151,78.95a7.67,7.67,0,1,1,7.5-7.66A7.58,7.58,0,0,1,151,78.95Zm0,3a10.67,10.67,0,1,0-10.5-10.66A10.58,10.58,0,0,0,151,81.95ZM120.5,40.62h61v61.33h-61Z"/>
    </clipPath>
    <clipPath id="clip-path-105">
      <ellipse class="cls-1" cx="151" cy="71.28" rx="9" ry="9.16"/>
    </clipPath>
  </defs>
  <title>Rityta 1</title>
  <g class="cls-4">
    <g class="cls-5">
      <rect class="cls-6" x="-6" y="-5" width="391" height="177"/>
    </g>
  </g>
  <g class="cls-7">
    <g class="cls-8">
      <g class="cls-5">
        <path class="cls-6" d="M38,106.88a2,2,0,0,1,2-2H342a2,2,0,0,1,2,2v36.75a2,2,0,0,1-2,2H40a2,2,0,0,1-2-2Z"/>
      </g>
    </g>
  </g>
  <g class="cls-8">
    <g class="cls-5">
      <path class="cls-9" d="M38,106.88a2,2,0,0,1,2-2H342a2,2,0,0,1,2,2v36.75a2,2,0,0,1-2,2H40a2,2,0,0,1-2-2Z"/>
    </g>
  </g>
  <g class="cls-5">
    <line class="cls-10" x1="21.5" y1="44.3" x2="21.5" y2="59.57"/>
    <line class="cls-10" x1="55.5" y1="44.3" x2="55.5" y2="59.57"/>
    <line class="cls-10" x1="90.5" y1="44.3" x2="90.5" y2="59.57"/>
    <line class="cls-10" x1="124.5" y1="44.3" x2="124.5" y2="59.57"/>
    <line class="cls-10" x1="157.5" y1="44.3" x2="157.5" y2="59.57"/>
    <line class="cls-10" x1="191.5" y1="44.3" x2="191.5" y2="59.57"/>
    <line class="cls-10" x1="225.5" y1="44.3" x2="225.5" y2="59.57"/>
    <line class="cls-10" x1="260.5" y1="44.3" x2="260.5" y2="59.57"/>
    <line class="cls-10" x1="294.5" y1="44.3" x2="294.5" y2="59.57"/>
    <line class="cls-10" x1="327.5" y1="44.3" x2="327.5" y2="59.57"/>
    <line class="cls-10" x1="362.5" y1="44.3" x2="362.5" y2="59.57"/>
    <line class="cls-11" x1="0.5" y1="52.95" x2="379.5" y2="52.95"/>
    <text class="cls-12" transform="translate(159 129.07)">TIDSLINJE</text>
  </g>
  <g class="cls-13">
    <g class="cls-14">
      <g class="cls-5">
        <ellipse cx="22" cy="32.59" rx="9" ry="9.16"/>
      </g>
    </g>
  </g>
  <g class="cls-14">
    <g class="cls-5">
      <ellipse class="cls-15" cx="22" cy="32.59" rx="9" ry="9.16"/>
    </g>
  </g>
  <g class="cls-16">
    <g class="cls-17">
      <g class="cls-5">
        <ellipse cx="55" cy="71.28" rx="9" ry="9.16"/>
      </g>
    </g>
  </g>
  <g class="cls-17">
    <g class="cls-5">
      <ellipse class="cls-15" cx="55" cy="71.28" rx="9" ry="9.16"/>
    </g>
  </g>
  <g class="cls-18">
    <g class="cls-19">
      <g class="cls-5">
        <ellipse cx="125" cy="71.28" rx="9" ry="9.16"/>
      </g>
    </g>
  </g>
  <g class="cls-19">
    <g class="cls-5">
      <ellipse class="cls-15" cx="125" cy="71.28" rx="9" ry="9.16"/>
    </g>
  </g>
  <g class="cls-20">
    <g class="cls-21">
      <g class="cls-5">
        <ellipse cx="125" cy="32.59" rx="9" ry="9.16"/>
      </g>
    </g>
  </g>
  <g class="cls-21">
    <g class="cls-5">
      <ellipse class="cls-15" cx="125" cy="32.59" rx="9" ry="9.16"/>
    </g>
  </g>
  <g class="cls-22">
    <g class="cls-23">
      <g class="cls-5">
        <ellipse cx="119" cy="32.59" rx="9" ry="9.16"/>
      </g>
    </g>
  </g>
  <g class="cls-23">
    <g class="cls-5">
      <ellipse class="cls-15" cx="119" cy="32.59" rx="9" ry="9.16"/>
    </g>
  </g>
  <g class="cls-24">
    <g class="cls-25">
      <g class="cls-5">
        <ellipse cx="260" cy="32.59" rx="9" ry="9.16"/>
      </g>
    </g>
  </g>
  <g class="cls-25">
    <g class="cls-5">
      <ellipse class="cls-15" cx="260" cy="32.59" rx="9" ry="9.16"/>
    </g>
  </g>
  <g class="cls-26">
    <g class="cls-27">
      <g class="cls-5">
        <ellipse cx="255" cy="32.59" rx="9" ry="9.16"/>
      </g>
    </g>
  </g>
  <g class="cls-27">
    <g class="cls-5">
      <ellipse class="cls-15" cx="255" cy="32.59" rx="9" ry="9.16"/>
    </g>
  </g>
  <g class="cls-28">
    <g class="cls-29">
      <g class="cls-5">
        <ellipse cx="294" cy="32.59" rx="9" ry="9.16"/>
      </g>
    </g>
  </g>
  <g class="cls-29">
    <g class="cls-5">
      <ellipse class="cls-15" cx="294" cy="32.59" rx="9" ry="9.16"/>
    </g>
  </g>
  <g class="cls-30">
    <g class="cls-31">
      <g class="cls-5">
        <ellipse cx="327" cy="32.59" rx="9" ry="9.16"/>
      </g>
    </g>
  </g>
  <g class="cls-31">
    <g class="cls-5">
      <ellipse class="cls-15" cx="327" cy="32.59" rx="9" ry="9.16"/>
    </g>
  </g>
  <g class="cls-32">
    <g class="cls-33">
      <g class="cls-5">
        <ellipse cx="321" cy="32.59" rx="9" ry="9.16"/>
      </g>
    </g>
  </g>
  <g class="cls-33">
    <g class="cls-5">
      <ellipse class="cls-15" cx="321" cy="32.59" rx="9" ry="9.16"/>
    </g>
  </g>
  <g class="cls-34">
    <g class="cls-35">
      <g class="cls-5">
        <ellipse cx="315" cy="32.59" rx="9" ry="9.16"/>
      </g>
    </g>
  </g>
  <g class="cls-35">
    <g class="cls-5">
      <ellipse class="cls-15" cx="315" cy="32.59" rx="9" ry="9.16"/>
    </g>
  </g>
  <g class="cls-36">
    <g class="cls-37">
      <g class="cls-5">
        <ellipse cx="362" cy="32.59" rx="9" ry="9.16"/>
      </g>
    </g>
  </g>
  <g class="cls-37">
    <g class="cls-5">
      <ellipse class="cls-15" cx="362" cy="32.59" rx="9" ry="9.16"/>
    </g>
  </g>
  <g class="cls-38">
    <g class="cls-39">
      <g class="cls-5">
        <ellipse cx="356" cy="32.59" rx="9" ry="9.16"/>
      </g>
    </g>
  </g>
  <g class="cls-39">
    <g class="cls-5">
      <ellipse class="cls-15" cx="356" cy="32.59" rx="9" ry="9.16"/>
    </g>
  </g>
  <g class="cls-40">
    <g class="cls-41">
      <g class="cls-5">
        <ellipse cx="362" cy="71.28" rx="9" ry="9.16"/>
      </g>
    </g>
  </g>
  <g class="cls-41">
    <g class="cls-5">
      <ellipse class="cls-15" cx="362" cy="71.28" rx="9" ry="9.16"/>
    </g>
  </g>
  <g class="cls-42">
    <g class="cls-43">
      <g class="cls-5">
        <ellipse cx="158" cy="71.28" rx="9" ry="9.16"/>
      </g>
    </g>
  </g>
  <g class="cls-43">
    <g class="cls-5">
      <ellipse class="cls-15" cx="158" cy="71.28" rx="9" ry="9.16"/>
    </g>
  </g>
  <g class="cls-44">
    <g class="cls-45">
      <g class="cls-5">
        <ellipse cx="294" cy="71.28" rx="9" ry="9.16"/>
      </g>
    </g>
  </g>
  <g class="cls-45">
    <g class="cls-5">
      <ellipse class="cls-15" cx="294" cy="71.28" rx="9" ry="9.16"/>
    </g>
  </g>
  <g class="cls-46">
    <g class="cls-47">
      <g class="cls-5">
        <ellipse cx="287" cy="71.28" rx="9" ry="9.16"/>
      </g>
    </g>
  </g>
  <g class="cls-47">
    <g class="cls-5">
      <ellipse class="cls-15" cx="287" cy="71.28" rx="9" ry="9.16"/>
    </g>
  </g>
  <g class="cls-48">
    <g class="cls-49">
      <g class="cls-5">
        <ellipse cx="281" cy="71.28" rx="9" ry="9.16"/>
      </g>
    </g>
  </g>
  <g class="cls-49">
    <g class="cls-5">
      <ellipse class="cls-15" cx="281" cy="71.28" rx="9" ry="9.16"/>
    </g>
  </g>
  <g class="cls-50">
    <g class="cls-51">
      <g class="cls-5">
        <ellipse cx="274" cy="71.28" rx="9" ry="9.16"/>
      </g>
    </g>
  </g>
  <g class="cls-51">
    <g class="cls-5">
      <ellipse class="cls-15" cx="274" cy="71.28" rx="9" ry="9.16"/>
    </g>
  </g>
  <g class="cls-52">
    <g class="cls-53">
      <g class="cls-5">
        <ellipse cx="151" cy="71.28" rx="9" ry="9.16"/>
      </g>
    </g>
  </g>
  <g class="cls-53">
    <g class="cls-5">
      <ellipse class="cls-15" cx="151" cy="71.28" rx="9" ry="9.16"/>
    </g>
  </g>
</svg>
